<svg width="50" height="57" viewBox="0 0 50 57" fill="none" xmlns="http://www.w3.org/2000/svg">
<path d="M44.6429 3.5625H5.35714C2.39955 3.5625 0 5.95605 0 8.90625V48.0938C0 51.0439 2.39955 53.4375 5.35714 53.4375H44.6429C47.6004 53.4375 50 51.0439 50 48.0938V8.90625C50 5.95605 47.6004 3.5625 44.6429 3.5625ZM30.9487 46.2791C30.0112 46.4461 29.6652 45.8672 29.6652 45.3885C29.6652 44.7873 29.6875 41.7146 29.6875 39.232C29.6875 37.4953 29.1071 36.3932 28.4263 35.8143C32.5558 35.3578 36.9085 34.79 36.9085 27.6762C36.9085 25.65 36.183 24.6369 35 23.3344C35.1897 22.8557 35.8259 20.8852 34.8103 18.3246C33.2589 17.8459 29.7098 20.3174 29.7098 20.3174C28.2366 19.9055 26.6406 19.6939 25.067 19.6939C23.4933 19.6939 21.8973 19.9055 20.4241 20.3174C20.4241 20.3174 16.875 17.8459 15.3237 18.3246C14.308 20.874 14.933 22.8445 15.1339 23.3344C13.9509 24.6369 13.3929 25.65 13.3929 27.6762C13.3929 34.7566 17.5558 35.3578 21.6853 35.8143C21.1496 36.293 20.6696 37.1168 20.5022 38.2969C19.442 38.7756 16.7299 39.5994 15.1116 36.7494C14.096 34.9904 12.2656 34.8457 12.2656 34.8457C10.4576 34.8234 12.1429 35.9813 12.1429 35.9813C13.3482 36.5379 14.1964 38.6754 14.1964 38.6754C15.279 41.9818 20.4576 40.8686 20.4576 40.8686C20.4576 42.416 20.4799 44.932 20.4799 45.3885C20.4799 45.8672 20.1451 46.4461 19.1964 46.2791C11.8304 43.8188 6.67411 36.8273 6.67411 28.6559C6.67411 18.4359 14.5089 10.6764 24.7545 10.6764C35 10.6764 43.3036 18.4359 43.3036 28.6559C43.3147 36.8273 38.3147 43.8299 30.9487 46.2791ZM20 39.477C19.7879 39.5215 19.5871 39.4324 19.5647 39.2877C19.5424 39.1207 19.6875 38.976 19.8996 38.9314C20.1116 38.9092 20.3125 38.9982 20.3348 39.143C20.3683 39.2877 20.2232 39.4324 20 39.477ZM18.9397 39.3768C18.9397 39.5215 18.7723 39.6439 18.5491 39.6439C18.3036 39.6662 18.1362 39.5438 18.1362 39.3768C18.1362 39.232 18.3036 39.1096 18.5268 39.1096C18.7388 39.0873 18.9397 39.2098 18.9397 39.3768ZM17.4107 39.2543C17.3661 39.399 17.1429 39.4658 16.9531 39.399C16.7411 39.3545 16.596 39.1875 16.6406 39.0428C16.6853 38.898 16.9085 38.8313 17.0982 38.8758C17.3214 38.9426 17.4665 39.1096 17.4107 39.2543ZM16.0379 38.6531C15.9375 38.7756 15.7254 38.7533 15.558 38.5863C15.3906 38.4416 15.346 38.2301 15.4576 38.1299C15.558 38.0074 15.7701 38.0297 15.9375 38.1967C16.0826 38.3414 16.1384 38.5641 16.0379 38.6531ZM15.0223 37.64C14.9219 37.7068 14.7321 37.64 14.6094 37.473C14.4866 37.3061 14.4866 37.1168 14.6094 37.0389C14.7321 36.9387 14.9219 37.0166 15.0223 37.1836C15.1451 37.3506 15.1451 37.551 15.0223 37.64ZM14.2969 36.5602C14.1964 36.6604 14.029 36.6047 13.9062 36.4934C13.7835 36.3486 13.7612 36.1816 13.8616 36.1037C13.9621 36.0035 14.1295 36.0592 14.2522 36.1705C14.375 36.3152 14.3973 36.4822 14.2969 36.5602ZM13.5491 35.7363C13.5045 35.8365 13.3594 35.8588 13.2366 35.7809C13.0915 35.7141 13.0246 35.5916 13.0692 35.4914C13.1138 35.4246 13.2366 35.3912 13.3817 35.4469C13.5268 35.5248 13.5938 35.6473 13.5491 35.7363Z" fill="#F4EDEA"/>
</svg>
