<svg width="50" height="57" viewBox="0 0 50 57" fill="none" xmlns="http://www.w3.org/2000/svg">
<g clip-path="url(#clip0_26_61)">
<path d="M25.011 15.6973C17.9128 15.6973 12.1873 21.4084 12.1873 28.4889C12.1873 35.5694 17.9128 41.2805 25.011 41.2805C32.1092 41.2805 37.8346 35.5694 37.8346 28.4889C37.8346 21.4084 32.1092 15.6973 25.011 15.6973ZM25.011 36.8051C20.4239 36.8051 16.6739 33.0756 16.6739 28.4889C16.6739 23.9022 20.4128 20.1727 25.011 20.1727C29.6092 20.1727 33.348 23.9022 33.348 28.4889C33.348 33.0756 29.598 36.8051 25.011 36.8051ZM41.3503 15.174C41.3503 16.8328 40.011 18.1576 38.3592 18.1576C36.6963 18.1576 35.3681 16.8217 35.3681 15.174C35.3681 13.5264 36.7074 12.1904 38.3592 12.1904C40.011 12.1904 41.3503 13.5264 41.3503 15.174ZM49.8436 18.2022C49.6538 14.2055 48.7387 10.6652 45.8034 7.74845C42.8793 4.83165 39.3302 3.91876 35.3235 3.71837C31.194 3.48458 18.8168 3.48458 14.6873 3.71837C10.6918 3.90763 7.14268 4.82052 4.20742 7.73732C1.27215 10.6541 0.368129 14.1943 0.167236 18.191C-0.0671387 22.3102 -0.0671387 34.6565 0.167236 38.7756C0.356968 42.7723 1.27215 46.3125 4.20742 49.2293C7.14268 52.1461 10.6806 53.059 14.6873 53.2594C18.8168 53.4932 31.194 53.4932 35.3235 53.2594C39.3302 53.0701 42.8793 52.1572 45.8034 49.2293C48.7275 46.3125 49.6427 42.7723 49.8436 38.7756C50.078 34.6565 50.078 22.3213 49.8436 18.2022ZM44.5088 43.1953C43.6382 45.3774 41.953 47.0584 39.7543 47.9379C36.4619 49.2404 28.6494 48.9399 25.011 48.9399C21.3726 48.9399 13.5489 49.2293 10.2677 47.9379C8.08018 47.0695 6.39492 45.3885 5.51322 43.1953C4.20742 39.9111 4.50875 32.1182 4.50875 28.4889C4.50875 24.8596 4.21858 17.0555 5.51322 13.7824C6.38375 11.6004 8.06902 9.91935 10.2677 9.03986C13.5601 7.73732 21.3726 8.0379 25.011 8.0379C28.6494 8.0379 36.473 7.74845 39.7543 9.03986C41.9418 9.90822 43.6271 11.5893 44.5088 13.7824C45.8146 17.0666 45.5132 24.8596 45.5132 28.4889C45.5132 32.1182 45.8146 39.9223 44.5088 43.1953Z" fill="#F4EDEA"/>
</g>
<defs>
<clipPath id="clip0_26_61">
<rect width="50" height="57" fill="white"/>
</clipPath>
</defs>
</svg>
