<svg width="20" height="17" viewBox="0 0 20 17" fill="none" xmlns="http://www.w3.org/2000/svg">
<path d="M18.3546 6.27929C19.2179 5.39286 19.088 3.8222 18.0643 2.77112C17.0406 1.72005 15.511 1.58658 14.6476 2.47302C13.7843 3.35945 13.9143 4.93011 14.938 5.98119C15.9616 7.03226 17.4913 7.16573 18.3546 6.27929Z" fill="#E0DBC8"/>
<path d="M7.23264 5.43927C8.44279 4.53118 8.81915 2.94549 8.07325 1.89752C7.32735 0.849551 5.74166 0.736156 4.53151 1.64424C3.32135 2.55233 2.945 4.13803 3.6909 5.186C4.43679 6.23396 6.02249 6.34736 7.23264 5.43927Z" fill="#E0DBC8"/>
<path d="M10.8984 3.79176C6.98949 3.79176 3.77773 6.68259 3.77773 10.6199C2.83989 10.9593 1.43161 10.5982 0.558746 10.3028C0.219406 10.1881 -0.099604 10.5288 0.029216 10.8711C0.730126 12.736 3.1703 16.9552 10.8984 16.9552C15.1384 16.9552 17.9762 14.4838 17.9762 10.3735C17.9762 6.73838 14.8074 3.79176 10.8984 3.79176Z" fill="#E0DBC8"/>
</svg>
