<svg width="20" height="20" viewBox="0 0 20 20" fill="none" xmlns="http://www.w3.org/2000/svg">
<g clip-path="url(#clip0_4_93)">
<path d="M10 20C4.486 20 0 15.514 0 10C0 4.486 4.486 0 10 0C15.514 0 20 4.486 20 10C20 15.514 15.514 20 10 20ZM10 1.9528C5.5628 1.9528 1.9528 5.5628 1.9528 10C1.9528 14.4372 5.5628 18.0472 10 18.0472C14.4372 18.0472 18.0472 14.4372 18.0472 10C18.0472 5.5628 14.4372 1.9528 10 1.9528ZM10 3.8654C7.52 3.8654 5.5078 5.8766 5.5078 8.3576C5.5078 11.027 8.4278 14.7824 9.5596 16.1376C9.61344 16.202 9.68074 16.2537 9.75677 16.2893C9.83279 16.3248 9.91568 16.3432 9.9996 16.3432C10.0835 16.3432 10.1664 16.3248 10.2424 16.2893C10.3185 16.2537 10.3858 16.202 10.4396 16.1376C11.571 14.7826 14.4912 11.0272 14.4912 8.3576C14.4922 5.8766 12.481 3.8654 10 3.8654ZM10 10C9.67516 10 9.35762 9.90367 9.08753 9.72321C8.81744 9.54274 8.60693 9.28623 8.48262 8.98612C8.35831 8.68601 8.32579 8.35578 8.38916 8.03718C8.45253 7.71859 8.60895 7.42594 8.83865 7.19625C9.06834 6.96655 9.36099 6.81013 9.67958 6.74676C9.99818 6.68339 10.3284 6.71591 10.6285 6.84022C10.9286 6.96453 11.1851 7.17504 11.3656 7.44513C11.5461 7.71522 11.6424 8.03276 11.6424 8.3576C11.6424 8.79319 11.4694 9.21094 11.1614 9.51895C10.8533 9.82696 10.4356 10 10 10Z" fill="#E0DBC8"/>
</g>
<defs>
<clipPath id="clip0_4_93">
<rect width="20" height="20" fill="white"/>
</clipPath>
</defs>
</svg>
