<svg width="32" height="19" viewBox="0 0 32 19" fill="none" xmlns="http://www.w3.org/2000/svg">
<path d="M30.3277 5.27709C30.0277 5.27712 29.7333 5.19852 29.4752 5.04955C29.2172 4.90057 29.0051 4.68672 28.8612 4.43041C28.6618 4.07437 28.3676 3.77722 28.0095 3.57019C27.6514 3.36316 27.2427 3.2539 26.8263 3.2539C26.4098 3.2539 26.0011 3.36316 25.643 3.57019C25.2849 3.77722 24.9908 4.07437 24.7914 4.43041C24.5763 4.80436 24.2183 5.08053 23.7953 5.19893C23.3723 5.31732 22.9183 5.26836 22.5322 5.0627C22.146 4.85704 21.8588 4.51128 21.7329 4.10055C21.607 3.68983 21.6526 3.24732 21.8599 2.86918C22.347 2.00078 23.0652 1.27611 23.9391 0.771262C24.813 0.266411 25.8103 0 26.8264 0C27.8425 0 28.8399 0.266411 29.7138 0.771262C30.5877 1.27611 31.3059 2.00078 31.793 2.86918C31.9318 3.11689 32.0022 3.39549 31.9971 3.67766C31.992 3.95983 31.9117 4.23587 31.7641 4.47869C31.6164 4.72152 31.4064 4.92279 31.1548 5.06276C30.9032 5.20273 30.6185 5.27659 30.3287 5.27709H30.3277Z" fill="#E0DBC8"/>
<path d="M30.3277 11.6386C30.0277 11.6387 29.7332 11.5601 29.4752 11.4111C29.2171 11.2621 29.005 11.0482 28.8611 10.7919C28.6618 10.4359 28.3676 10.1387 28.0095 9.93167C27.6514 9.72464 27.2427 9.61538 26.8263 9.61538C26.4098 9.61538 26.0011 9.72464 25.643 9.93167C25.2849 10.1387 24.9908 10.4359 24.7914 10.7919C24.6874 10.9816 24.5458 11.1494 24.3749 11.2855C24.2039 11.4216 24.0069 11.5234 23.7953 11.5849C23.5837 11.6464 23.3616 11.6664 23.142 11.6438C22.9224 11.6212 22.7096 11.5565 22.5158 11.4533C22.3221 11.3501 22.1512 11.2105 22.0132 11.0427C21.8752 10.8748 21.7727 10.6819 21.7117 10.4752C21.6507 10.2685 21.6324 10.0521 21.6578 9.8385C21.6833 9.62487 21.7519 9.41828 21.8599 9.23066C22.347 8.36226 23.0652 7.63759 23.9391 7.13274C24.813 6.62789 25.8103 6.36148 26.8264 6.36148C27.8425 6.36148 28.8399 6.62789 29.7138 7.13274C30.5877 7.63759 31.3059 8.36226 31.793 9.23066C31.9319 9.47835 32.0024 9.75698 31.9973 10.0392C31.9923 10.3214 31.912 10.5975 31.7643 10.8403C31.6166 11.0832 31.4066 11.2845 31.1549 11.4244C30.9032 11.5644 30.6185 11.6382 30.3287 11.6386H30.3277Z" fill="#E0DBC8"/>
<path d="M30.3277 18.0001C30.0277 18.0001 29.7332 17.9216 29.4752 17.7726C29.2171 17.6236 29.005 17.4097 28.8611 17.1534C28.6618 16.7973 28.3676 16.5002 28.0095 16.2932C27.6514 16.0861 27.2427 15.9769 26.8263 15.9769C26.4098 15.9769 26.0011 16.0861 25.643 16.2932C25.2849 16.5002 24.9908 16.7973 24.7914 17.1534C24.6874 17.3431 24.5458 17.5109 24.3749 17.647C24.2039 17.7831 24.0069 17.8848 23.7953 17.9463C23.5837 18.0078 23.3616 18.0279 23.142 18.0053C22.9224 17.9827 22.7096 17.918 22.5158 17.8148C22.3221 17.7116 22.1512 17.572 22.0132 17.4041C21.8752 17.2363 21.7727 17.0434 21.7117 16.8367C21.6507 16.63 21.6324 16.4136 21.6578 16.2C21.6833 15.9864 21.7519 15.7798 21.8599 15.5921C22.347 14.7237 23.0652 13.9991 23.9391 13.4942C24.813 12.9894 25.8103 12.723 26.8264 12.723C27.8425 12.723 28.8399 12.9894 29.7138 13.4942C30.5877 13.9991 31.3059 14.7237 31.793 15.5921C31.9319 15.8398 32.0024 16.1185 31.9973 16.4007C31.9923 16.6829 31.912 16.959 31.7643 17.2018C31.6166 17.4447 31.4066 17.6459 31.1549 17.7859C30.9032 17.9258 30.6185 17.9996 30.3287 18.0001H30.3277Z" fill="#E0DBC8"/>
<path d="M19.4992 11.6386C19.1991 11.6388 18.9044 11.5604 18.6462 11.4114C18.3881 11.2624 18.1759 11.0484 18.032 10.7919C17.8326 10.4359 17.5384 10.1387 17.1804 9.93167C16.8223 9.72464 16.4135 9.61538 15.9971 9.61538C15.5807 9.61538 15.1719 9.72464 14.8139 9.93167C14.4558 10.1387 14.1616 10.4359 13.9622 10.7919C13.7487 11.1689 13.3905 11.4481 12.9661 11.5684C12.5416 11.6887 12.0854 11.6403 11.6976 11.4338C11.3097 11.2272 11.0217 10.8794 10.8966 10.4664C10.7716 10.0535 10.8197 9.60912 11.0304 9.23066C11.5175 8.36226 12.2357 7.63759 13.1096 7.13274C13.9835 6.62789 14.9808 6.36148 15.997 6.36148C17.0131 6.36148 18.0104 6.62789 18.8843 7.13274C19.7582 7.63759 20.4764 8.36226 20.9635 9.23066C21.1026 9.47834 21.1731 9.75699 21.1681 10.0392C21.1631 10.3215 21.0828 10.5976 20.9351 10.8405C20.7874 11.0834 20.5774 11.2847 20.3256 11.4246C20.0739 11.5645 19.7891 11.6383 19.4992 11.6386Z" fill="#E0DBC8"/>
<path d="M19.4992 18.0001C19.1991 18.0003 18.9044 17.9218 18.6462 17.7728C18.3881 17.6238 18.1759 17.4099 18.032 17.1534C17.8326 16.7973 17.5384 16.5002 17.1804 16.2932C16.8223 16.0861 16.4135 15.9769 15.9971 15.9769C15.5807 15.9769 15.1719 16.0861 14.8139 16.2932C14.4558 16.5002 14.1616 16.7973 13.9622 17.1534C13.7487 17.5304 13.3905 17.8096 12.9661 17.9299C12.5416 18.0502 12.0854 18.0018 11.6976 17.7952C11.3097 17.5887 11.0217 17.2408 10.8966 16.8279C10.7716 16.415 10.8197 15.9706 11.0304 15.5921C11.5175 14.7237 12.2357 13.9991 13.1096 13.4942C13.9835 12.9894 14.9808 12.723 15.997 12.723C17.0131 12.723 18.0104 12.9894 18.8843 13.4942C19.7582 13.9991 20.4764 14.7237 20.9635 15.5921C21.1026 15.8398 21.1731 16.1185 21.1681 16.4007C21.1631 16.6829 21.0828 16.9591 20.9351 17.202C20.7874 17.4448 20.5774 17.6461 20.3256 17.7861C20.0739 17.926 19.7891 17.9997 19.4992 18.0001Z" fill="#E0DBC8"/>
<path d="M8.67082 18.0001C8.37067 18.0003 8.07598 17.9218 7.81774 17.7728C7.55951 17.6238 7.34726 17.4099 7.2033 17.1534C7.00391 16.7974 6.70973 16.5003 6.35169 16.2934C5.99364 16.0864 5.58496 15.9772 5.16858 15.9772C4.75221 15.9772 4.34352 16.0864 3.98548 16.2934C3.62743 16.5003 3.33325 16.7974 3.13386 17.1534C2.92038 17.5304 2.56217 17.8096 2.13769 17.9299C1.71321 18.0502 1.25707 18.0018 0.869182 17.7952C0.481295 17.5887 0.193283 17.2408 0.0682343 16.8279C-0.0568146 16.415 -0.00870612 15.9706 0.202022 15.5921C0.689119 14.7237 1.40732 13.9991 2.28122 13.4942C3.15512 12.9894 4.15248 12.723 5.16858 12.723C6.18468 12.723 7.18204 12.9894 8.05594 13.4942C8.92984 13.9991 9.64804 14.7237 10.1351 15.5921C10.2741 15.8398 10.3445 16.1185 10.3395 16.4007C10.3345 16.6829 10.2542 16.959 10.1065 17.2018C9.95879 17.4447 9.74879 17.6459 9.49709 17.7859C9.2454 17.9258 8.96065 17.9996 8.67082 18.0001Z" fill="#E0DBC8"/>
</svg>
