<svg width="104" height="19" viewBox="0 0 104 19" fill="none" xmlns="http://www.w3.org/2000/svg">
<path d="M0.308156 4.296V0.48H6.95616V18H2.68416V4.296H0.308156ZM9.61959 14.712C10.1636 14.28 10.4116 14.08 10.3636 14.112C11.9316 12.816 13.1636 11.752 14.0596 10.92C14.9716 10.088 15.7396 9.216 16.3636 8.304C16.9876 7.392 17.2996 6.504 17.2996 5.64C17.2996 4.984 17.1476 4.472 16.8436 4.104C16.5396 3.736 16.0836 3.552 15.4756 3.552C14.8676 3.552 14.3876 3.784 14.0356 4.248C13.6996 4.696 13.5316 5.336 13.5316 6.168H9.57159C9.60359 4.808 9.89159 3.672 10.4356 2.76C10.9956 1.848 11.7236 1.176 12.6196 0.743999C13.5316 0.311999 14.5396 0.0959988 15.6436 0.0959988C17.5476 0.0959988 18.9796 0.583999 19.9396 1.56C20.9156 2.536 21.4036 3.808 21.4036 5.376C21.4036 7.088 20.8196 8.68 19.6516 10.152C18.4836 11.608 16.9956 13.032 15.1876 14.424H21.6676V17.76H9.61959V14.712ZM25.8025 18.192C25.0825 18.192 24.4905 17.984 24.0265 17.568C23.5785 17.136 23.3545 16.608 23.3545 15.984C23.3545 15.344 23.5785 14.808 24.0265 14.376C24.4905 13.944 25.0825 13.728 25.8025 13.728C26.5065 13.728 27.0825 13.944 27.5305 14.376C27.9945 14.808 28.2265 15.344 28.2265 15.984C28.2265 16.608 27.9945 17.136 27.5305 17.568C27.0825 17.984 26.5065 18.192 25.8025 18.192ZM25.8025 8.424C25.0825 8.424 24.4905 8.216 24.0265 7.8C23.5785 7.368 23.3545 6.84 23.3545 6.216C23.3545 5.576 23.5785 5.04 24.0265 4.608C24.4905 4.176 25.0825 3.96 25.8025 3.96C26.5065 3.96 27.0825 4.176 27.5305 4.608C27.9945 5.04 28.2265 5.576 28.2265 6.216C28.2265 6.84 27.9945 7.368 27.5305 7.8C27.0825 8.216 26.5065 8.424 25.8025 8.424ZM30.2948 9C30.2948 6.248 30.8228 4.08 31.8788 2.496C32.9508 0.911999 34.6708 0.119998 37.0388 0.119998C39.4068 0.119998 41.1188 0.911999 42.1748 2.496C43.2468 4.08 43.7828 6.248 43.7828 9C43.7828 11.784 43.2468 13.968 42.1748 15.552C41.1188 17.136 39.4068 17.928 37.0388 17.928C34.6708 17.928 32.9508 17.136 31.8788 15.552C30.8228 13.968 30.2948 11.784 30.2948 9ZM39.7508 9C39.7508 7.384 39.5748 6.144 39.2228 5.28C38.8708 4.4 38.1428 3.96 37.0388 3.96C35.9348 3.96 35.2068 4.4 34.8548 5.28C34.5028 6.144 34.3268 7.384 34.3268 9C34.3268 10.088 34.3908 10.992 34.5188 11.712C34.6468 12.416 34.9028 12.992 35.2868 13.44C35.6868 13.872 36.2708 14.088 37.0388 14.088C37.8068 14.088 38.3828 13.872 38.7668 13.44C39.1668 12.992 39.4308 12.416 39.5588 11.712C39.6868 10.992 39.7508 10.088 39.7508 9ZM45.9511 9C45.9511 6.248 46.4791 4.08 47.5351 2.496C48.6071 0.911999 50.3271 0.119998 52.6951 0.119998C55.0631 0.119998 56.7751 0.911999 57.8311 2.496C58.9031 4.08 59.4391 6.248 59.4391 9C59.4391 11.784 58.9031 13.968 57.8311 15.552C56.7751 17.136 55.0631 17.928 52.6951 17.928C50.3271 17.928 48.6071 17.136 47.5351 15.552C46.4791 13.968 45.9511 11.784 45.9511 9ZM55.4071 9C55.4071 7.384 55.2311 6.144 54.8791 5.28C54.5271 4.4 53.7991 3.96 52.6951 3.96C51.5911 3.96 50.8631 4.4 50.5111 5.28C50.1591 6.144 49.9831 7.384 49.9831 9C49.9831 10.088 50.0471 10.992 50.1751 11.712C50.3031 12.416 50.5591 12.992 50.9431 13.44C51.3431 13.872 51.9271 14.088 52.6951 14.088C53.4631 14.088 54.0391 13.872 54.4231 13.44C54.8231 12.992 55.0871 12.416 55.2151 11.712C55.3431 10.992 55.4071 10.088 55.4071 9ZM77.5893 15.024H71.3013L70.2933 18H65.9973L72.0933 1.152H76.8453L82.9413 18H78.5973L77.5893 15.024ZM76.5333 11.856L74.4453 5.688L72.3813 11.856H76.5333ZM103.877 1.152V18H99.7726V7.896L96.0046 18H92.6926L88.9006 7.872V18H84.7966V1.152H89.6446L94.3726 12.816L99.0526 1.152H103.877Z" fill="#E0DBC8"/>
</svg>
